<svg xmlns="http://www.w3.org/2000/svg" viewBox="0 0 64 64" width="64" height="64">
  <defs>
    <linearGradient id="sky" x1="0" y1="0" x2="0" y2="1">
      <stop offset="0" stop-color="#fdf8ee"/>
      <stop offset="1" stop-color="#eadcc3"/>
    </linearGradient>
    <linearGradient id="shell" x1="0" y1="0" x2="0" y2="1">
      <stop offset="0" stop-color="#f4b89e"/>
      <stop offset="1" stop-color="#d68665"/>
    </linearGradient>
    <linearGradient id="wave" x1="0" y1="0" x2="0" y2="1">
      <stop offset="0" stop-color="#178092"/>
      <stop offset="1" stop-color="#0f4e5c"/>
    </linearGradient>
  </defs>
  <circle cx="32" cy="32" r="32" fill="url(#sky)"/>
  <path d="M0 49 Q12 42 22 49 T44 49 T64 49 L64 64 L0 64 Z" fill="url(#wave)" opacity="0.95"/>
  <path d="M0 55 Q12 49 22 55 T44 55 T64 55 L64 64 L0 64 Z" fill="#9fc8c1" opacity="0.85"/>
  <g transform="translate(32 30)">
    <path d="M-18 8 C-18 -12 -10 -20 0 -20 C10 -20 18 -12 18 8 Z" fill="url(#shell)" stroke="#a25e44" stroke-width="0.8" stroke-linejoin="round"/>
    <path d="M-15 5 C-13 -8 -10 -16 -7 -19" stroke="#a25e44" stroke-width="0.6" fill="none" opacity="0.7"/>
    <path d="M-9 6 C-8 -8 -6 -17 -3 -20" stroke="#a25e44" stroke-width="0.6" fill="none" opacity="0.7"/>
    <path d="M-3 7 C-2 -8 -1 -18 0 -20" stroke="#a25e44" stroke-width="0.6" fill="none" opacity="0.7"/>
    <path d="M3 7 C2 -8 1 -18 0 -20" stroke="#a25e44" stroke-width="0.6" fill="none" opacity="0.7"/>
    <path d="M9 6 C8 -8 6 -17 3 -20" stroke="#a25e44" stroke-width="0.6" fill="none" opacity="0.7"/>
    <path d="M15 5 C13 -8 10 -16 7 -19" stroke="#a25e44" stroke-width="0.6" fill="none" opacity="0.7"/>
    <circle cx="0" cy="8" r="2.2" fill="#a25e44"/>
  </g>
</svg>
